HIERARCHY
ROOT Hips
{
	OFFSET 0.00000 0.00000 0.00000
	CHANNELS 6 Xposition Yposition Zposition Zrotation Yrotation Xrotation 
	JOINT LHipJoint
	{
		OFFSET 0 0 0
		CHANNELS 3 Zrotation Yrotation Xrotation
		JOINT LeftHip
		{
			OFFSET 1.59715 -1.91394 0.36268
			CHANNELS 3 Zrotation Yrotation Xrotation
			JOINT LeftKnee
			{
				OFFSET 2.53886 -6.97546 0.00000
				CHANNELS 3 Zrotation Yrotation Xrotation
				JOINT LeftAnkle
				{
					OFFSET 2.77084 -7.61284 0.00000
					CHANNELS 3 Zrotation Yrotation Xrotation
					JOINT LeftToe
					{
						OFFSET 0.19855 -0.54550 2.06057
						CHANNELS 3 Zrotation Yrotation Xrotation
						End Site
						{
							OFFSET 0.00000 -0.00000 1.07182
						}
					}
				}
			}
		}
	}
	JOINT RHipJoint
	{
		OFFSET 0 0 0
		CHANNELS 3 Zrotation Yrotation Xrotation
		JOINT RightHip
		{
			OFFSET -1.71086 -1.91394 0.36268
			CHANNELS 3 Zrotation Yrotation Xrotation
			JOINT RightKnee
			{
				OFFSET -2.59448 -7.12828 0.00000
				CHANNELS 3 Zrotation Yrotation Xrotation
				JOINT RightAnkle
				{
					OFFSET -2.80237 -7.69945 0.00000
					CHANNELS 3 Zrotation Yrotation Xrotation
					JOINT RightToe
					{
						OFFSET -0.18280 -0.50224 2.06614
						CHANNELS 3 Zrotation Yrotation Xrotation
						End Site
						{
							OFFSET -0.00000 -0.00000 1.07055
						}
					}
				}
			}
		}
	}
	JOINT lowerback
	{
		OFFSET 0 0 0
		CHANNELS 3 Zrotation Yrotation Xrotation
		JOINT Chest
		{
			OFFSET 0.04838 1.91536 -0.09733
			CHANNELS 3 Zrotation Yrotation Xrotation
			JOINT Chest2
			{
				OFFSET 0.04097 1.92183 -0.02751
				CHANNELS 3 Zrotation Yrotation Xrotation
				JOINT lowerneck
				{
					OFFSET 0 0 0
					CHANNELS 3 Zrotation Yrotation Xrotation
					JOINT Neck
					{
						OFFSET 0.18766 3.12816 0.13727
						CHANNELS 3 Zrotation Yrotation Xrotation
						JOINT Head
						{
							OFFSET -0.11178 3.16074 0.02732
							CHANNELS 3 Zrotation Yrotation Xrotation
							End Site
							{
								OFFSET 0.47685 1.04189 0.57898
							}
						}
					}
				}
				JOINT LeftCollar
				{
					OFFSET 0 0 0
					CHANNELS 3 Zrotation Yrotation Xrotation
					JOINT LeftShoulder
					{
						OFFSET 3.49325 0.99827 -0.10681
CHANNELS 3 Zrotation Xrotation Yrotation
						JOINT LeftElbow
						{
OFFSET 0 -5.128420 0.000000
CHANNELS 3 Zrotation Xrotation Yrotation
							JOINT LeftWrist
							{
OFFSET 0 -3.473960 0.000000
CHANNELS 3 Zrotation Xrotation Yrotation
								JOINT lhand
								{
									OFFSET 0 0 0
CHANNELS 3 Zrotation Xrotation Yrotation
									JOINT LFingers
									{
OFFSET 0 -0.728610 0.000000
CHANNELS 3 Zrotation Xrotation Yrotation
										End Site
										{
OFFSET 0 -0.587420 0.000000
										}
									}
								}
								JOINT LThumb
								{
OFFSET 0 0.000000 0.000000
CHANNELS 3 Zrotation Xrotation Yrotation
									End Site
									{
OFFSET 0 -0.596390 0.596390
									}
								}
							}
						}
					}
				}
				JOINT RightCollar
				{
					OFFSET 0 0 0
					CHANNELS 3 Zrotation Yrotation Xrotation
					JOINT RightShoulder
					{
						OFFSET -3.23261 1.50670 -0.18692
CHANNELS 3 Zrotation Xrotation Yrotation
						JOINT RightElbow
						{
OFFSET 0 -5.484770 -0.000000
CHANNELS 3 Zrotation Xrotation Yrotation
							JOINT RightWrist
							{
OFFSET 0 -3.478560 0.000000
CHANNELS 3 Zrotation Xrotation Yrotation
								JOINT rhand
								{
									OFFSET 0 0 0
CHANNELS 3 Zrotation Xrotation Yrotation
									JOINT RFingers
									{
OFFSET 0 -0.709970 0.000000
CHANNELS 3 Zrotation Xrotation Yrotation
										End Site
										{
OFFSET 0 -0.572400 0.000000
										}
									}
								}
								JOINT RThumb
								{
OFFSET 0 0.000000 0.000000
CHANNELS 3 Zrotation Xrotation Yrotation
									End Site
									{
OFFSET 0 -0.581140 0.581140
									}
								}
							}
						}
					}
				}
			}
		}
	}
}
MOTION
Frames: 11
Frame Time: 0.008333333333333333
-0.048619 18.217990 -3.533097 -3.041544 0.616925 2.784504 0.000000 0.000000 0.000000 -18.157317 -13.671255 -9.027548 2.380034 9.616415 27.743282 0.857059 2.472637 -18.548572 0.130383 2.326945 6.410213 0.000000 0.000000 0.000000 27.537189 10.607797 -10.414324 -2.981769 -10.665538 31.159961 -0.763635 -9.525820 -22.581470 -2.057616 -8.984762 25.747860 1.913381 -1.129560 1.023110 2.796172 -1.293691 -5.115019 1.912985 -0.658065 -5.854685 -7.183590 -6.536190 -7.891146 -0.162317 -7.909561 19.330969 0.411527 -4.327297 7.542179 0.000000 0.000000 0.000000 49.845684 -30.955437 -1.303208 81.778776 -59.740695 52.886528 33.305307 15.756404 -28.066142 0.000000 0.000000 0.000000 -7.125000 0.000000 0.000000 3.573326 62.481849 -1.519001 0.000000 0.000000 0.000000 -57.498285 -32.073004 -0.258953 -95.285689 -59.890187 -64.575718 -26.908336 -17.083931 -8.162942 0.000000 0.000000 0.000000 7.125000 0.000000 0.000000 -0.035759 20.841530 -0.020762
-0.031885 18.208927 -3.520250 -3.153479 0.599172 2.867392 0.000000 0.000000 0.000000 -18.058387 -13.636516 -9.142085 2.389514 9.634206 27.800061 0.890003 2.285158 -18.785406 0.195427 2.845929 7.850025 0.000000 0.000000 0.000000 27.588595 10.560677 -10.386396 -2.964013 -10.636555 31.063742 -0.776470 -9.483128 -22.658802 -2.062564 -8.995152 25.780205 1.961533 -1.136017 0.805830 2.789342 -1.333852 -4.375919 1.856522 -0.679831 -4.952716 -6.759259 -6.668821 -10.764448 -0.278951 -7.908002 20.147631 0.187040 -4.296059 8.303740 0.000000 0.000000 0.000000 30.592696 -18.780150 -13.721827 82.724939 -59.797473 53.703959 32.173479 16.378187 -26.632812 0.000000 0.000000 0.000000 -7.125000 0.000000 0.000000 2.587377 60.606370 -0.985559 0.000000 0.000000 0.000000 -37.386753 -19.138388 13.346445 -101.320520 -59.509825 -69.787709 -28.495382 -15.649961 -10.343566 0.000000 0.000000 0.000000 7.125000 0.000000 0.000000 -1.024230 18.246873 -0.654735
-0.015265 18.203362 -3.500968 -3.090791 0.394849 2.827372 0.000000 0.000000 0.000000 -18.232429 -13.623501 -9.011392 2.401059 9.655733 27.868850 0.909763 2.384096 -19.028319 0.199543 2.876340 7.934665 0.000000 0.000000 0.000000 27.479553 10.708544 -10.288918 -2.989285 -10.677756 31.200603 -0.783484 -9.446895 -22.690237 -2.022283 -8.912331 25.521509 1.855411 -1.175125 1.231186 2.878419 -1.387595 -3.863438 2.009806 -0.700387 -4.652052 -6.722108 -6.658903 -12.480684 -0.313045 -7.752840 20.323145 0.122339 -4.212107 8.665988 0.000000 0.000000 0.000000 16.112170 -6.764983 -18.311556 65.659677 -57.626202 39.090112 25.894983 11.944973 -25.097415 0.000000 0.000000 0.000000 -7.125000 0.000000 0.000000 -4.149135 57.435595 1.265658 0.000000 0.000000 0.000000 -22.581741 -6.410167 19.815917 -86.330489 -59.938362 -56.823035 -24.865120 -14.654312 -10.432491 0.000000 0.000000 0.000000 7.125000 0.000000 0.000000 1.539826 18.510634 0.971534
0.004636 18.190400 -3.489417 -3.137539 0.029973 2.937974 0.000000 0.000000 0.000000 -18.192760 -13.226566 -9.451521 2.473684 9.789833 28.298755 0.944975 2.130009 -19.248606 0.228363 3.075102 8.487946 0.000000 0.000000 0.000000 27.424836 10.932473 -10.524623 -3.046213 -10.769437 31.506267 -0.794840 -9.203722 -22.581419 -2.018813 -8.905163 25.499183 1.885365 -1.307589 1.680693 2.952686 -1.559336 -3.418139 2.080836 -0.785440 -4.438453 -6.618224 -6.364804 -13.417051 0.124358 -7.378722 19.702286 0.276816 -3.969233 8.622467 0.000000 0.000000 0.000000 6.477123 1.811055 -16.241399 45.689930 -51.093539 22.776837 20.518650 18.313401 -24.638024 0.000000 0.000000 0.000000 -7.125000 0.000000 0.000000 -9.720060 55.807032 2.594241 0.000000 0.000000 0.000000 -13.180045 2.115779 20.467862 -60.154261 -56.339020 -34.471997 -22.155118 -13.594450 -11.571333 0.000000 0.000000 0.000000 7.125000 0.000000 0.000000 3.495317 17.527888 2.284791
0.016451 18.183141 -3.475846 -3.094130 -0.326849 3.037431 0.000000 0.000000 0.000000 -18.300571 -13.175911 -9.510527 2.487708 9.815479 28.381246 0.951972 2.373255 -19.431716 0.213521 2.974528 8.208006 0.000000 0.000000 0.000000 27.317286 11.207733 -10.698009 -3.108669 -10.868918 31.839039 -0.827134 -8.995507 -22.691843 -2.129788 -9.131276 26.206896 1.808393 -1.385165 2.251935 2.911588 -1.662724 -2.941838 2.092288 -0.835063 -4.263406 -6.357433 -6.191133 -13.967075 0.524485 -7.228103 18.848553 0.384357 -3.825697 8.428826 0.000000 0.000000 0.000000 0.801460 6.810853 -12.020157 32.058650 -42.585398 12.783461 14.401704 22.546555 -21.542447 0.000000 0.000000 0.000000 -7.125000 0.000000 0.000000 -14.521774 51.576947 2.395532 0.000000 0.000000 0.000000 -7.945780 6.186050 18.807815 -39.931076 -48.015963 -18.392087 -21.837169 -10.985716 -9.761655 0.000000 0.000000 0.000000 7.125000 0.000000 0.000000 3.663562 19.490781 2.235531
0.045551 18.189883 -3.457999 -3.170508 -1.072439 3.271932 0.000000 0.000000 0.000000 -18.355676 -13.054424 -9.556007 2.474182 9.790704 28.301685 0.938952 2.994395 -19.618021 0.217857 3.005018 8.292691 0.000000 0.000000 0.000000 27.224517 11.499033 -10.708801 -3.070578 -10.808513 31.636614 -0.811330 -8.727699 -22.326732 -2.057659 -8.985166 25.749008 1.828064 -1.330234 2.661564 3.005582 -1.579671 -2.650910 2.178756 -0.792891 -4.193172 -6.234957 -5.911647 -13.864777 0.610861 -6.884673 18.141218 0.449384 -3.640640 8.157771 0.000000 0.000000 0.000000 -2.649551 9.968365 -8.545986 24.094983 -35.262811 7.762035 13.243886 26.082909 -21.642387 0.000000 0.000000 0.000000 -7.125000 0.000000 0.000000 -15.683481 51.482274 2.557206 0.000000 0.000000 0.000000 -5.363625 8.095645 16.698911 -28.815191 -39.853421 -10.642994 -20.369167 -10.099586 -10.501283 0.000000 0.000000 0.000000 7.125000 0.000000 0.000000 4.722158 18.816317 2.956747
0.066200 18.200663 -3.454633 -3.166449 -1.598562 3.718922 0.000000 0.000000 0.000000 -18.381551 -13.144037 -9.922247 2.453067 9.752086 28.177511 0.910774 3.416382 -19.571894 0.247999 3.204460 8.848580 0.000000 0.000000 0.000000 27.019139 11.972353 -11.025768 -3.048622 -10.773344 31.519233 -0.797196 -8.567311 -22.065834 -2.105934 -9.083227 26.056047 1.823543 -1.104144 2.882895 3.050917 -1.273325 -2.488813 2.211257 -0.639562 -4.156345 -6.123244 -5.893658 -13.941730 0.212643 -6.795752 18.179828 0.307939 -3.629535 8.163283 0.000000 0.000000 0.000000 -4.697459 11.277988 -5.510079 19.481829 -30.011995 5.270207 10.987319 24.467267 -23.684578 0.000000 0.000000 0.000000 -7.125000 0.000000 0.000000 -18.844591 53.059559 3.844954 0.000000 0.000000 0.000000 -3.395781 8.904430 12.195346 -22.900705 -33.978438 -7.083451 -21.053092 -9.665195 -10.700707 0.000000 0.000000 0.000000 7.125000 0.000000 0.000000 4.242780 18.551328 2.680402
0.090963 18.203807 -3.454404 -3.110109 -1.152112 4.024850 0.000000 0.000000 0.000000 -18.436763 -13.446564 -10.136281 2.424008 9.698351 28.005377 0.904611 3.249572 -19.421577 0.232024 3.100022 8.557294 0.000000 0.000000 0.000000 26.845423 12.082419 -11.262381 -3.040010 -10.759571 31.473268 -0.819596 -8.689403 -22.369827 -2.197720 -9.266402 26.632159 2.029705 -1.227807 2.695416 2.952799 -1.450377 -2.184658 1.993015 -0.734676 -3.737691 -5.826862 -5.705606 -13.507992 -0.009293 -6.584638 17.897765 0.230277 -3.530909 7.965678 0.000000 0.000000 0.000000 -5.829742 11.873828 -3.099722 17.195521 -27.114561 4.176138 11.796062 24.232490 -26.638786 0.000000 0.000000 0.000000 -7.125000 0.000000 0.000000 -19.719756 56.004014 5.474461 0.000000 0.000000 0.000000 -2.137168 9.152375 9.649360 -19.935462 -30.564331 -5.498608 -23.938718 -10.208639 -9.496928 0.000000 0.000000 0.000000 7.125000 0.000000 0.000000 2.156073 19.611469 1.308237
0.119603 18.204900 -3.462394 -3.150010 -0.979900 4.013452 0.000000 0.000000 0.000000 -18.491214 -13.515510 -10.133563 2.425156 9.700466 28.012135 0.908150 3.098813 -19.376113 0.248854 3.209874 8.863635 0.000000 0.000000 0.000000 26.778504 11.897856 -11.332989 -3.037619 -10.755647 31.460186 -0.794957 -8.836736 -22.270299 -1.995096 -8.855755 25.345256 2.230164 -1.204708 3.143769 2.986165 -1.396639 -2.008630 1.920352 -0.712415 -3.814361 -5.934962 -5.694120 -13.250531 -0.053751 -6.553536 17.926031 0.243586 -3.528851 7.931489 0.000000 0.000000 0.000000 -6.301531 12.057237 -2.782551 15.681550 -25.086865 3.509881 12.485879 23.231002 -27.616925 0.000000 0.000000 0.000000 -7.125000 0.000000 0.000000 -19.642530 57.064754 5.963915 0.000000 0.000000 0.000000 -1.862973 9.215698 8.954191 -18.191962 -28.401996 -4.640306 -24.612899 -10.663136 -10.334963 0.000000 0.000000 0.000000 7.125000 0.000000 0.000000 1.713262 18.640334 1.076230
0.138046 18.201442 -3.490468 -2.804465 -0.714064 4.201964 0.000000 0.000000 0.000000 -18.853711 -13.794995 -10.440091 2.419574 9.690140 27.979047 0.888714 3.044661 -19.156981 0.246890 3.197406 8.828964 0.000000 0.000000 0.000000 26.269782 12.093661 -11.834365 -3.118457 -10.884401 31.891054 -0.814378 -8.930768 -22.523998 -1.933366 -8.725755 24.941296 1.876050 -1.137893 3.525345 2.883217 -1.315831 -1.936078 2.015265 -0.664173 -3.950189 -5.731821 -5.751137 -12.912242 -0.155731 -6.677093 17.782836 0.176743 -3.583719 7.815837 0.000000 0.000000 0.000000 -6.070302 12.258047 -4.602557 15.676511 -25.080067 3.507696 11.319484 22.251765 -28.044980 0.000000 0.000000 0.000000 -7.125000 0.000000 0.000000 -21.109701 57.220908 6.515804 0.000000 0.000000 0.000000 -1.797336 8.686573 9.611614 -17.193681 -27.112371 -4.175221 -24.181640 -9.612669 -10.453170 0.000000 0.000000 0.000000 7.125000 0.000000 0.000000 2.023610 18.550607 1.275453
0.158761 18.201204 -3.511197 -2.926764 -0.637127 3.994034 0.000000 0.000000 0.000000 -18.781021 -13.495631 -10.481131 2.437834 9.724020 28.087554 0.892649 2.667469 -19.000720 0.257115 3.262397 9.010120 0.000000 0.000000 0.000000 26.382411 12.130062 -11.671921 -3.118839 -10.884982 31.892891 -0.791706 -9.124729 -22.486039 -1.872324 -8.594868 24.535978 2.142331 -1.061480 3.832700 2.830375 -1.199682 -1.629327 1.804551 -0.613297 -3.815149 -5.806489 -5.738194 -12.673556 0.063544 -6.701651 17.697469 0.266112 -3.579447 7.756323 0.000000 0.000000 0.000000 -5.393954 11.702453 -7.460475 16.367563 -26.016291 3.805856 11.282310 21.703966 -28.783723 0.000000 0.000000 0.000000 -7.125000 0.000000 0.000000 -21.661009 57.897656 7.055250 0.000000 0.000000 0.000000 -1.787471 7.928092 11.983993 -17.229307 -27.159075 -4.191476 -24.064805 -9.594772 -9.893125 0.000000 0.000000 0.000000 7.125000 0.000000 0.000000 2.082083 19.169983 1.283687
